Coordinates
version=1
nRows=43
nColumns=12
inDegrees=yes

Units are S.I. units (second, meters, Newtons, ...)
Angles are in degrees

endheader
time	SC_y	SC_z	SC_x	AC_y	AC_z	AC_x	GH_y	GH_z	GH_yy	EL_x	PS_y
       0.0              -29.84        -0.3265          37.58           44.3          9.543          6.889         -5.455         -11.25          67.76          118.9          92.08
  0.004732              -29.83        -0.3249          37.58           44.3          9.539          6.886         -5.432         -11.25          67.77          118.9          92.07
  0.009463              -29.83        -0.3232          37.58           44.3          9.536          6.883         -5.408         -11.24          67.77          118.9          92.07
    0.0142              -29.83        -0.3214          37.58           44.3          9.533           6.88         -5.382         -11.24          67.78          118.9          92.07
   0.01893              -29.82        -0.3195          37.58           44.3          9.529          6.876         -5.354         -11.24           67.8          118.8          92.06
   0.02366              -29.82        -0.3175          37.58           44.3          9.525          6.873         -5.324         -11.24          67.81          118.8          92.06
   0.02839              -29.82        -0.3153          37.58           44.3          9.521          6.869         -5.293         -11.23          67.82          118.8          92.05
   0.03312              -29.82         -0.313          37.58           44.3          9.516          6.865         -5.259         -11.23          67.83          118.8          92.05
   0.03785              -29.81        -0.3105          37.58           44.3          9.511          6.861         -5.222         -11.23          67.84          118.8          92.04
   0.04259              -29.81        -0.3079          37.58           44.3          9.506          6.856         -5.184         -11.22          67.86          118.8          92.03
   0.04732               -29.8         -0.305          37.58           44.3            9.5          6.851         -5.142         -11.22          67.88          118.8          92.03
   0.05205               -29.8         -0.302          37.58           44.3          9.494          6.845         -5.097         -11.21          67.89          118.8          92.02
   0.05678              -29.79        -0.2986          37.58           44.3          9.488           6.84         -5.048         -11.21          67.91          118.8          92.01
   0.06151              -29.79        -0.2951          37.58           44.3          9.481          6.833         -4.996          -11.2          67.93          118.8           92.0
   0.06624              -29.78        -0.2912          37.58           44.3          9.473          6.826         -4.939          -11.2          67.95          118.7          91.99
   0.07098              -29.78         -0.287          37.58          44.31          9.465          6.819         -4.878         -11.19          67.98          118.7          91.98
   0.07571              -29.77        -0.2824          37.58          44.31          9.456          6.811         -4.811         -11.18           68.0          118.7          91.97
   0.08044              -29.76        -0.2775          37.58          44.31          9.446          6.802         -4.739         -11.18          68.03          118.7          91.96
   0.08517              -29.76         -0.272          37.58          44.31          9.435          6.793         -4.659         -11.17          68.06          118.7          91.95
    0.0899              -29.75        -0.2661          37.58          44.31          9.423          6.782         -4.572         -11.16          68.09          118.6          91.94
   0.09463              -29.74        -0.2596          37.58          44.31          9.411          6.771         -4.477         -11.15          68.13          118.6          91.92
   0.09937              -29.73        -0.2524          37.58          44.31          9.396          6.758         -4.372         -11.14          68.17          118.6           91.9
    0.1041              -29.71        -0.2445          37.58          44.31          9.381          6.744         -4.256         -11.13          68.21          118.6          91.88
    0.1088               -29.7        -0.2357          37.58          44.31          9.363          6.729         -4.127         -11.11          68.26          118.5          91.86
    0.1136              -29.69        -0.2259          37.58          44.31          9.344          6.711         -3.984          -11.1          68.31          118.5          91.84
    0.1183              -29.67         -0.215          37.58          44.31          9.323          6.692         -3.825         -11.08          68.37          118.4          91.81
     0.123              -29.65        -0.2028          37.58          44.32          9.298          6.671         -3.646         -11.07          68.44          118.4          91.79
    0.1278              -29.63         -0.189          37.58          44.32          9.271          6.646         -3.445         -11.05          68.52          118.3          91.75
    0.1325              -29.61        -0.1735          37.58          44.32          9.241          6.619         -3.218         -11.02           68.6          118.3          91.72
    0.1372              -29.58        -0.1559          37.58          44.32          9.206          6.588          -2.96          -11.0           68.7          118.2          91.68
     0.142              -29.55        -0.1358          37.58          44.32          9.166          6.552         -2.665         -10.97          68.81          118.1          91.63
    0.1467              -29.52        -0.1127          37.58          44.33          9.121          6.512         -2.328         -10.93          68.94          118.0          91.57
    0.1514              -29.48       -0.08603          37.58          44.33          9.068          6.465         -1.938         -10.89          69.09          117.9          91.51
    0.1561              -29.44       -0.05506          37.58          44.34          9.007           6.41         -1.485         -10.85          69.26          117.8          91.44
    0.1609              -29.38       -0.01882          37.58          44.34          8.935          6.346        -0.9543         -10.79          69.46          117.7          91.35
    0.1656              -29.32         0.0239          37.59          44.35          8.851          6.271        -0.3292         -10.73           69.7          117.5          91.25
    0.1703              -29.25        0.07467          37.59          44.35          8.751          6.181         0.4136         -10.65          69.98          117.3          91.13
    0.1751              -29.16         0.1355          37.59          44.36          8.631          6.074          1.304         -10.56          70.32          117.1          90.99
    0.1798              -29.05         0.2091          37.59          44.37          8.485          5.944          2.381         -10.45          70.73          116.8          90.82
    0.1845              -28.91         0.2991          37.59          44.38          8.308          5.786          3.697         -10.32          71.23          116.5           90.6
    0.1893              -28.75         0.4101           37.6          44.39          8.089           5.59          5.321         -10.16          71.84          116.0          90.34
     0.194              -28.55         0.5485           37.6          44.41          7.815          5.346          7.346          -9.95          72.61          115.5          90.02
    0.1987              -28.29         0.7229           37.6          44.43          7.471          5.038          9.898         -9.691          73.58          114.8          89.61
